<?xml version="1.0" standalone="no"?>
<svg viewBox="0 0 200 200" xmlns="http://www.w3.org/2000/svg">
  <path fill="#8A3FFC" d="M33,-61.5C42.1,-51.8,48.3,-41.7,54.6,-31.4C60.9,-21,67.1,-10.5,71,2.2C74.8,15,76.3,29.9,69.7,39.7C63.1,49.5,48.5,54.1,35.6,62.2C22.6,70.3,11.3,81.9,-0.5,82.8C-12.4,83.7,-24.8,74,-35.7,64.8C-46.7,55.5,-56.2,46.7,-66.2,36C-76.3,25.3,-87,12.6,-88.1,-0.6C-89.2,-13.9,-80.8,-27.9,-71.2,-39.4C-61.6,-51,-50.9,-60.3,-38.8,-68.3C-26.8,-76.3,-13.4,-83,-0.7,-81.7C11.9,-80.5,23.9,-71.2,33,-61.5Z" transform="translate(107 100)" />
</svg>
