<?xml version="1.0" standalone="no"?>
<svg viewBox="0 0 200 200" xmlns="http://www.w3.org/2000/svg">
  <path fill="#24A148" d="M37,-63.3C47.7,-58,56,-47.5,64,-36.1C72,-24.7,79.9,-12.4,81.9,1.2C83.9,14.7,80.1,29.3,70.3,37.8C60.5,46.2,44.8,48.3,32.1,54.4C19.4,60.4,9.7,70.4,-1.3,72.7C-12.3,74.9,-24.5,69.3,-36.6,62.9C-48.6,56.4,-60.4,49,-69,38.4C-77.7,27.8,-83.1,13.9,-81.8,0.8C-80.5,-12.4,-72.4,-24.8,-65.5,-38.3C-58.5,-51.9,-52.7,-66.6,-42,-71.9C-31.3,-77.2,-15.6,-73.1,-1.2,-70.9C13.2,-68.8,26.3,-68.6,37,-63.3Z" transform="translate(100 100)" />
</svg>
