<?xml version="1.0" standalone="no"?>
<svg viewBox="0 0 200 200" xmlns="http://www.w3.org/2000/svg">
  <path fill="#FA4D56" d="M30.1,-46.6C40.8,-40,52.4,-34.6,58.2,-25.5C64.1,-16.4,64.2,-3.6,64.8,11.1C65.5,25.8,66.7,42.3,59.5,52.7C52.3,63.1,36.6,67.2,22.9,65.5C9.2,63.8,-2.5,56.3,-18.1,54.8C-33.7,53.4,-53,58,-61.5,51.5C-70,44.9,-67.6,27.2,-64.9,12.4C-62.2,-2.3,-59.1,-13.9,-54.9,-25.9C-50.7,-37.8,-45.4,-50.1,-36.1,-57.3C-26.7,-64.5,-13.4,-66.6,-1.8,-63.7C9.7,-60.9,19.4,-53.1,30.1,-46.6Z" transform="translate(100 100)" />
</svg>
