<?xml version="1.0" standalone="no"?>
<svg viewBox="0 0 200 200" xmlns="http://www.w3.org/2000/svg">
  <path fill="#08BDBA" d="M39.4,-60.1C49.3,-54.9,54.3,-41,57,-28.1C59.6,-15.2,59.9,-3.3,58.6,8.7C57.2,20.6,54.3,32.5,48.2,44.6C42.1,56.6,32.9,68.7,20.1,75.7C7.3,82.8,-9.1,84.7,-21.4,78.5C-33.7,72.2,-41.9,57.8,-48.3,44.9C-54.8,32,-59.5,20.6,-65.3,6.9C-71.2,-6.8,-78.1,-22.8,-73.7,-34.2C-69.4,-45.6,-53.6,-52.2,-39.4,-55.4C-25.2,-58.6,-12.6,-58.2,1.1,-59.9C14.8,-61.6,29.5,-65.2,39.4,-60.1Z" transform="translate(100 100)" />
</svg>
