<?xml version="1.0" standalone="no"?>
<svg viewBox="0 0 200 200" xmlns="http://www.w3.org/2000/svg">
  <path fill="#8A3FFC" d="M42.6,-61.1C57.4,-56.8,73,-48.6,78.5,-36C84.1,-23.4,79.6,-6.3,75.5,9.7C71.4,25.7,67.8,40.7,59.2,52.3C50.7,64,37.2,72.4,24,71.7C10.7,71.1,-2.2,61.4,-12.5,53.4C-22.7,45.4,-30.3,39.1,-43.9,32.8C-57.6,26.5,-77.4,20.2,-79.8,10.8C-82.2,1.4,-67.2,-11.2,-57.3,-23.4C-47.4,-35.5,-42.7,-47.2,-34,-54.3C-25.2,-61.3,-12.6,-63.7,0.7,-64.7C13.9,-65.7,27.9,-65.3,42.6,-61.1Z" transform="translate(100 100)" />
</svg>
