<?xml version="1.0" standalone="no"?>
<svg viewBox="0 0 200 200" xmlns="http://www.w3.org/2000/svg">
  <path fill="#FF0066" d="M40.2,-73.5C49.5,-64.3,52.6,-48.2,55.8,-34.8C59.1,-21.4,62.5,-10.7,65,1.5C67.6,13.6,69.2,27.3,66.1,40.9C63,54.5,55.1,68.1,43.2,74.6C31.4,81.1,15.7,80.6,-0.3,81C-16.3,81.5,-32.5,83,-46.3,77.6C-60,72.2,-71.3,59.9,-76.8,45.9C-82.3,31.8,-82,15.9,-80.4,1C-78.7,-14,-75.7,-28,-69.6,-41C-63.5,-54.1,-54.3,-66.2,-42.2,-73.7C-30.1,-81.2,-15.1,-84.1,0.2,-84.4C15.5,-84.8,31,-82.6,40.2,-73.5Z" transform="translate(108 100)" />
</svg>
