<?xml version="1.0" standalone="no"?>
<svg viewBox="0 0 200 200" xmlns="http://www.w3.org/2000/svg">
  <path fill="#24A148" d="M29.6,-53.2C38.6,-46.1,46.2,-38.6,55.5,-29.6C64.8,-20.7,75.7,-10.4,77.3,0.9C78.9,12.2,71,24.3,61,32C51,39.8,38.9,43.1,28.4,49.6C17.9,56.1,8.9,65.7,-1.7,68.7C-12.4,71.6,-24.7,67.9,-32.1,59.6C-39.4,51.3,-41.8,38.4,-48.3,27.7C-54.7,17,-65.3,8.5,-68.2,-1.7C-71,-11.8,-66.2,-23.6,-60.7,-36C-55.2,-48.3,-48.9,-61.1,-38.7,-67.5C-28.5,-73.8,-14.2,-73.7,-2,-70.3C10.3,-66.9,20.6,-60.3,29.6,-53.2Z" transform="translate(100 100)" />
</svg>
