<?xml version="1.0" standalone="no"?>
<svg viewBox="0 0 200 200" xmlns="http://www.w3.org/2000/svg">
  <path fill="#FA4D56" d="M38.5,-64.3C46.5,-54.8,47.1,-38.3,48.6,-25.1C50.1,-11.9,52.6,-2,56.2,11.7C59.9,25.4,64.7,42.8,58.5,51.6C52.3,60.3,35,60.2,20.3,60.7C5.6,61.2,-6.5,62.3,-20.5,61.8C-34.4,61.4,-50.2,59.3,-59.8,50.5C-69.4,41.8,-72.7,26.4,-76.4,10.1C-80.2,-6.2,-84.3,-23.3,-76.8,-33.2C-69.3,-43.1,-50.2,-45.8,-35.5,-52.2C-20.8,-58.5,-10.4,-68.7,2.5,-72.5C15.3,-76.3,30.6,-73.8,38.5,-64.3Z" transform="translate(100 100)" />
</svg>
