<?xml version="1.0" standalone="no"?>
<svg viewBox="0 0 200 200" xmlns="http://www.w3.org/2000/svg">
  <path fill="#8A3FFC" d="M31.3,-47.2C42.7,-41.3,55.7,-36.3,66.9,-26.3C78,-16.3,87.4,-1.2,82.4,9.7C77.5,20.5,58.2,27.1,45.1,35.3C32.1,43.5,25.3,53.4,14.7,61.9C4.1,70.4,-10.4,77.6,-23.9,76.1C-37.4,74.6,-50,64.4,-60.8,52.4C-71.7,40.4,-80.8,26.7,-83.9,11.5C-86.9,-3.6,-83.7,-20.2,-76,-33.7C-68.2,-47.1,-55.9,-57.4,-42.4,-62.4C-29,-67.3,-14.5,-67,-2.3,-63.4C9.9,-59.8,19.9,-53.1,31.3,-47.2Z" transform="translate(100 100)" />
</svg>
