<?xml version="1.0" standalone="no"?>
<svg viewBox="0 0 200 200" xmlns="http://www.w3.org/2000/svg">
  <path fill="#08BDBA" d="M45.7,-74.8C58.5,-71.7,67.8,-58.1,71.7,-43.9C75.5,-29.7,74,-14.8,70.6,-2C67.2,10.9,61.9,21.8,56.5,33.3C51,44.8,45.4,56.9,36,66.1C26.6,75.4,13.3,81.7,-1,83.4C-15.2,85,-30.4,82,-43.8,75.1C-57.2,68.2,-68.9,57.3,-75.3,44.2C-81.7,31,-82.8,15.5,-81.4,0.8C-80,-13.8,-75.9,-27.7,-69.4,-40.6C-62.8,-53.4,-53.7,-65.4,-41.7,-69C-29.7,-72.6,-14.9,-67.9,0.8,-69.2C16.4,-70.6,32.8,-78,45.7,-74.8Z" transform="translate(105 100)" />
</svg>
