<?xml version="1.0" standalone="no"?>
<svg viewBox="0 0 200 200" xmlns="http://www.w3.org/2000/svg">
  <path fill="#FF0066" d="M33.3,-53.1C46,-43.6,61.2,-39.2,70.2,-29.2C79.2,-19.2,82.1,-3.5,76.2,8.3C70.4,20.1,55.8,27.9,44.6,36C33.5,44,25.6,52.2,15.2,58.1C4.9,64,-8,67.5,-22.1,67.1C-36.2,66.7,-51.5,62.3,-58.5,52C-65.5,41.6,-64.2,25.3,-65.8,9.8C-67.4,-5.7,-72.1,-20.3,-70.2,-35.2C-68.3,-50,-59.9,-65.1,-47.1,-74.6C-34.3,-84,-17.2,-88,-3.4,-82.6C10.3,-77.3,20.5,-62.6,33.3,-53.1Z" transform="translate(100 100)" />
</svg>
