<?xml version="1.0" standalone="no"?>
<svg viewBox="0 0 200 200" xmlns="http://www.w3.org/2000/svg">
  <path fill="#FA4D56" d="M39.7,-69.8C52.2,-61.6,63.5,-52.4,71.5,-40.6C79.5,-28.8,84.3,-14.4,85.8,0.9C87.2,16.1,85.5,32.2,78.7,46.2C71.9,60.1,60.1,71.8,46.1,77.3C32.2,82.8,16.1,82.1,0.4,81.4C-15.3,80.8,-30.7,80.3,-42.6,73.6C-54.6,66.9,-63.1,54.1,-69.5,40.8C-75.9,27.6,-80.2,13.8,-81.6,-0.8C-83,-15.4,-81.5,-30.8,-73.8,-41.7C-66,-52.6,-51.9,-59,-38.5,-66.7C-25.2,-74.5,-12.6,-83.5,0.5,-84.4C13.6,-85.3,27.2,-78.1,39.7,-69.8Z" transform="translate(98 100)" />
</svg>
