<?xml version="1.0" standalone="no"?>
<svg viewBox="0 0 200 200" xmlns="http://www.w3.org/2000/svg">
  <path fill="#FF0066" d="M33.3,-57.7C40.2,-47.4,40.7,-33.1,47.8,-20.8C54.9,-8.6,68.6,1.6,70.5,12.4C72.5,23.1,62.6,34.4,52,42.9C41.3,51.5,29.9,57.2,19.1,56.6C8.3,55.9,-2,48.7,-13.7,45.7C-25.4,42.7,-38.7,43.8,-43.2,37.9C-47.8,31.9,-43.6,18.8,-44.9,6.7C-46.2,-5.3,-52.8,-16.2,-52.3,-26.6C-51.8,-37,-44.2,-46.9,-34.2,-55.8C-24.3,-64.7,-12.2,-72.7,0.5,-73.5C13.2,-74.4,26.4,-68,33.3,-57.7Z" transform="translate(100 100)" />
</svg>
